# xmcd
#
# Track frame offsets:
#	150
#	11919
#	30421
#	45944
#	61245
#	76420
#	88429
#	109212
#	127316
#	142610
#	155393
#	171966
#	192346
#	216392
#
# Disc length: 3056 seconds
#
# Revision: 0
# Processed by: cddbd v1.5.1PL2 Copyright (c) Steve Scherf et al.
# Submitted via: audiograbber 1.83.01
#
DISCID=c00bee0e
DTITLE=Varios - Temas De Novelas
DYEAR=1900
DGENRE=ROMÂNTICO
TTITLE0=Uma Rosa Com Amor - Ben
TTITLE1=Selva De Pedra - Rock And Roll Lullabay
TTITLE2=Eu Prometo - Tonight I Celebrate My Love
TTITLE3=Te Contei - It s A Heartache
TTITLE4=O Astro - Weare All Alone
TTITLE5=Super Manoela - You Are Everything
TTITLE6=O Bofe - Rocket Man
TTITLE7=Dancing Days - Rivers Of Babylon
TTITLE8=Uga Uga - Back At One
TTITLE9=O Beijo Do Vampiro - Blue Moon
TTITLE10=A Gata Comeu - The Heat Is On
TTITLE11=Espelho MÁgico - Ma Baker
TTITLE12=O Grito - True
TTITLE13=Locomotivas - Dance And Shake Your Tamborine
EXTD=
EXTT0=
EXTT1=
EXTT2=
EXTT3=
EXTT4=
EXTT5=
EXTT6=
EXTT7=
EXTT8=
EXTT9=
EXTT10=
EXTT11=
EXTT12=
EXTT13=
PLAYORDER=
